<?xml version="1.0" encoding="utf-8"?>
<!-- Generator: Adobe Illustrator 22.0.1, SVG Export Plug-In . SVG Version: 6.00 Build 0)  -->
<svg version="1.1" id="Capa_1" xmlns="http://www.w3.org/2000/svg" xmlns:xlink="http://www.w3.org/1999/xlink" x="0px" y="0px"
	 viewBox="0 0 500 270" style="enable-background:new 0 0 500 270;" xml:space="preserve">
<style type="text/css">
	.st0{font-family:'Helvetica';}
	.st1{font-size:14px;}
	.st2{fill:#999999;}
</style>
<image style="overflow:visible;enable-background:new    ;" width="1000" height="500" xlink:href="cancha.jpg"  transform="matrix(0.5 0 0 0.5 0 19.7763)">
</image>
<text transform="matrix(1 0 0 1 263.8283 248.3237)" class="st0 st1">1</text>
<text transform="matrix(1 0 0 1 329.6102 21.233)" class="st0 st1">1</text>
<text transform="matrix(1 0 0 1 189.1821 188.8339)" class="st0 st1">2</text>
<text transform="matrix(1 0 0 1 367.6514 93.3071)" class="st0 st1">2</text>
<text transform="matrix(1 0 0 1 134.2685 178.5376)" class="st0 st1">3</text>
<text transform="matrix(1 0 0 1 416.2729 117.3318)" class="st0 st1">3</text>
<text transform="matrix(1 0 0 1 194.3303 138.4964)" class="st0 st1">4</text>
<text transform="matrix(1 0 0 1 377.3757 132.7763)" class="st0 st1">4</text>
<text transform="matrix(1 0 0 1 229.2233 159.089)" class="st0 st1">5</text>
<text transform="matrix(1 0 0 1 334.4744 113.8997)" class="st0 st1">5</text>
<text transform="matrix(1 0 0 1 269.4085 180.3977)" class="st0 st1">6</text>
<text transform="matrix(1 0 0 1 293.1452 90.019)" class="st0 st1">6</text>
<text transform="matrix(1 0 0 1 57.6684 65.7464)" class="st2 st0 st1">Texto texto texto</text>
<text transform="matrix(1 0 0 1 354.4087 248.5547)" class="st2 st0 st1">Texto texto texto</text>
</svg>
