<?xml version="1.0" encoding="utf-8"?>
<!-- Generator: Adobe Illustrator 22.0.1, SVG Export Plug-In . SVG Version: 6.00 Build 0)  -->
<svg version="1.1" id="Capa_1" xmlns="http://www.w3.org/2000/svg" xmlns:xlink="http://www.w3.org/1999/xlink" x="0px" y="0px"
	 viewBox="0 0 2650 1080" style="enable-background:new 0 0 2650 1080;" xml:space="preserve">
<style type="text/css">
	.st0{font-family:'ArialMT';}
	.st1{font-size:80px;}
	.st2{letter-spacing:4;}
	.st3{fill:url(#SVGID_1_);}
	.st4{fill:url(#SVGID_2_);}
	.st5{fill:url(#SVGID_3_);}
	.st6{fill:url(#SVGID_4_);}
	.st7{fill:url(#SVGID_5_);}
	.st8{fill:url(#SVGID_6_);}
	.st9{fill:url(#SVGID_7_);}
	.st10{fill:url(#SVGID_8_);}
	.st11{fill:url(#SVGID_9_);}
	.st12{fill:url(#SVGID_10_);}
	.st13{fill:url(#SVGID_11_);}
	.st14{fill:url(#SVGID_12_);}
	.st15{fill:url(#SVGID_13_);}
	.st16{fill:url(#SVGID_14_);}
	.st17{fill:url(#SVGID_15_);}
	.st18{fill:url(#SVGID_16_);}
	.st19{fill:none;stroke:#000000;stroke-width:7;stroke-miterlimit:10;}
	.st20{font-family:'Arial-BoldMT';}
	.st21{fill:#1D1D1B;}
</style>
<g id="Capa_1_00000133518754864343391700000009589650881273622192_">
</g>
<text transform="matrix(1 0 0 1 129.4271 876.6645)" class="st0 st1 st2">EE.UU.</text>
<text transform="matrix(1 0 0 1 190.8959 574.2656)" class="st0 st1 st2">Cuba</text>
<g>
	<linearGradient id="SVGID_1_" gradientUnits="userSpaceOnUse" x1="465.9" y1="842" x2="936.9" y2="842">
		<stop  offset="0" style="stop-color:#FFFFD1"/>
		<stop  offset="1" style="stop-color:#FFDB4A"/>
	</linearGradient>
	<rect x="465.9" y="769.5" class="st3" width="471" height="145"/>
	<linearGradient id="SVGID_2_" gradientUnits="userSpaceOnUse" x1="465.4" y1="842" x2="937.4" y2="842">
		<stop  offset="0" style="stop-color:#FFFFD1"/>
		<stop  offset="1" style="stop-color:#FFDB4A"/>
	</linearGradient>
	<path class="st4" d="M936.4,770v144h-470V770H936.4 M937.4,769h-472v146h472V769L937.4,769z"/>
</g>
<g>
	<linearGradient id="SVGID_3_" gradientUnits="userSpaceOnUse" x1="937.9" y1="842" x2="1408.9" y2="842">
		<stop  offset="0" style="stop-color:#EEEEEE"/>
		<stop  offset="1" style="stop-color:#CCCCCC"/>
	</linearGradient>
	<rect x="937.9" y="769.5" class="st5" width="471" height="145"/>
	<linearGradient id="SVGID_4_" gradientUnits="userSpaceOnUse" x1="937.4" y1="842" x2="1409.4" y2="842">
		<stop  offset="0" style="stop-color:#EEEEEE"/>
		<stop  offset="1" style="stop-color:#CCCCCC"/>
	</linearGradient>
	<path class="st6" d="M1408.4,770v144h-470V770H1408.4 M1409.4,769h-472v146h472V769L1409.4,769z"/>
</g>
<text transform="matrix(1 0 0 1 174.1068 271.043)" class="st0 st1 st2">Brasil</text>
<g>
	
		<linearGradient id="SVGID_5_" gradientUnits="userSpaceOnUse" x1="1645.2" y1="539.8" x2="1998.7999" y2="539.8" gradientTransform="matrix(1 0 0 -1 0 1080)">
		<stop  offset="0" style="stop-color:#E8C36D"/>
		<stop  offset="1" style="stop-color:#82452F"/>
	</linearGradient>
	<rect x="1645.2" y="467.7" class="st7" width="353.6" height="145"/>
	
		<linearGradient id="SVGID_6_" gradientUnits="userSpaceOnUse" x1="1644.7001" y1="539.8" x2="1999.3" y2="539.8" gradientTransform="matrix(1 0 0 -1 0 1080)">
		<stop  offset="0" style="stop-color:#E8C36D"/>
		<stop  offset="1" style="stop-color:#82452F"/>
	</linearGradient>
	<path class="st8" d="M1998.3,468.2v144h-352.6v-144H1998.3 M1999.3,467.2h-354.6v146h354.6V467.2L1999.3,467.2z"/>
</g>
<g>
	<linearGradient id="SVGID_7_" gradientUnits="userSpaceOnUse" x1="465.5" y1="540.2" x2="1054.5" y2="540.2">
		<stop  offset="0" style="stop-color:#FFFFD1"/>
		<stop  offset="1" style="stop-color:#FFDB4A"/>
	</linearGradient>
	<rect x="465.5" y="467.7" class="st9" width="589" height="145"/>
	<linearGradient id="SVGID_8_" gradientUnits="userSpaceOnUse" x1="465" y1="540.2" x2="1055" y2="540.2">
		<stop  offset="0" style="stop-color:#FFFFD1"/>
		<stop  offset="1" style="stop-color:#FFDB4A"/>
	</linearGradient>
	<path class="st10" d="M1054,468.2v144H466v-144H1054 M1055,467.2H465v146h590V467.2L1055,467.2z"/>
</g>
<g>
	<linearGradient id="SVGID_9_" gradientUnits="userSpaceOnUse" x1="1055.5" y1="540.2" x2="1644.5" y2="540.2">
		<stop  offset="0" style="stop-color:#EEEEEE"/>
		<stop  offset="1" style="stop-color:#CCCCCC"/>
	</linearGradient>
	<rect x="1055.5" y="467.7" class="st11" width="589" height="145"/>
	<linearGradient id="SVGID_10_" gradientUnits="userSpaceOnUse" x1="1055" y1="540.2" x2="1645" y2="540.2">
		<stop  offset="0" style="stop-color:#EEEEEE"/>
		<stop  offset="1" style="stop-color:#CCCCCC"/>
	</linearGradient>
	<path class="st12" d="M1644,468.2v144h-588v-144H1644 M1645,467.2h-590v146h590V467.2L1645,467.2z"/>
</g>
<g>
	<linearGradient id="SVGID_11_" gradientUnits="userSpaceOnUse" x1="465.9" y1="238" x2="936.9" y2="238">
		<stop  offset="0" style="stop-color:#FFFFD1"/>
		<stop  offset="1" style="stop-color:#FFDB4A"/>
	</linearGradient>
	<rect x="465.9" y="165.5" class="st13" width="471" height="145"/>
	<linearGradient id="SVGID_12_" gradientUnits="userSpaceOnUse" x1="465.4" y1="238" x2="937.4" y2="238">
		<stop  offset="0" style="stop-color:#FFFFD1"/>
		<stop  offset="1" style="stop-color:#FFDB4A"/>
	</linearGradient>
	<path class="st14" d="M936.4,166v144h-470V166H936.4 M937.4,165h-472v146h472V165L937.4,165z"/>
</g>
<g>
	<linearGradient id="SVGID_13_" gradientUnits="userSpaceOnUse" x1="937.9" y1="238" x2="1762.9" y2="238">
		<stop  offset="0" style="stop-color:#EEEEEE"/>
		<stop  offset="1" style="stop-color:#CCCCCC"/>
	</linearGradient>
	<rect x="937.9" y="165.5" class="st15" width="825" height="145"/>
	<linearGradient id="SVGID_14_" gradientUnits="userSpaceOnUse" x1="937.4" y1="238" x2="1763.4" y2="238">
		<stop  offset="0" style="stop-color:#EEEEEE"/>
		<stop  offset="1" style="stop-color:#CCCCCC"/>
	</linearGradient>
	<path class="st16" d="M1762.4,166v144h-824V166H1762.4 M1763.4,165h-826v146h826V165L1763.4,165z"/>
</g>
<g>
	
		<linearGradient id="SVGID_15_" gradientUnits="userSpaceOnUse" x1="1763.9" y1="842" x2="2352.8999" y2="842" gradientTransform="matrix(1 0 0 -1 0 1080)">
		<stop  offset="0" style="stop-color:#E8C36D"/>
		<stop  offset="1" style="stop-color:#82452F"/>
	</linearGradient>
	<rect x="1763.9" y="165.5" class="st17" width="589" height="145"/>
	
		<linearGradient id="SVGID_16_" gradientUnits="userSpaceOnUse" x1="1763.3999" y1="842" x2="2353.3999" y2="842" gradientTransform="matrix(1 0 0 -1 0 1080)">
		<stop  offset="0" style="stop-color:#E8C36D"/>
		<stop  offset="1" style="stop-color:#82452F"/>
	</linearGradient>
	<path class="st18" d="M2352.4,166v144h-588V166H2352.4 M2353.4,165h-590v146h590V165L2353.4,165z"/>
</g>
<line class="st19" x1="464.5" y1="127.5" x2="464.5" y2="952.5"/>
<text transform="matrix(0.8784 0 0 1 722.0707 266.9023)" class="st20 st1">4</text>
<text transform="matrix(0.8784 0 0 1 722.0707 872.5234)" class="st20 st1">4</text>
<text transform="matrix(0.8784 0 0 1 722.0707 570.125)" class="st20 st1">5</text>
<text transform="matrix(0.8784 0 0 1 1265.1831 872.5234)" class="st21 st20 st1">4</text>
<text transform="matrix(0.8784 0 0 1 1265.1832 570.125)" class="st21 st20 st1">5</text>
<text transform="matrix(0.8784 0 0 1 1265.183 266.9023)" class="st21 st20 st1">7</text>
<text transform="matrix(0.8784 0 0 1 1796.2958 266.9023)" class="st20 st1">5</text>
<text transform="matrix(0.8784 0 0 1 1808.296 570.125)" class="st20 st1">3</text>
</svg>
