<?xml version="1.0" encoding="utf-8"?>
<!-- Generator: Adobe Illustrator 27.0.0, SVG Export Plug-In . SVG Version: 6.00 Build 0)  -->
<svg version="1.1" id="Layer_1" xmlns="http://www.w3.org/2000/svg" xmlns:xlink="http://www.w3.org/1999/xlink" x="0px" y="0px"
	 viewBox="0 0 841.9 595.3" style="enable-background:new 0 0 841.9 595.3;" xml:space="preserve">
<style type="text/css">
	.st0{fill:none;stroke:#100407;stroke-linecap:round;stroke-linejoin:round;stroke-dasharray:12.1988,12.1988;}
	.st1{fill:none;stroke:#100407;stroke-linecap:round;stroke-linejoin:round;stroke-dasharray:12.0994,12.0994;}
	.st2{fill:none;}
	.st3{font-family:'ArialMT';}
	.st4{font-size:16px;}
	.st5{fill:none;stroke:#000000;stroke-miterlimit:10;}
	.st6{fill:none;stroke:#100407;stroke-linecap:round;stroke-linejoin:round;}
	.st7{fill:none;stroke:#100407;stroke-linecap:round;stroke-linejoin:round;stroke-dasharray:12.0013,12.0013;}
</style>
<image style="overflow:visible;enable-background:new    ;" width="750" height="750" xlink:href="pelota-explotada.jpg"  transform="matrix(0.8355 0 0 0.8355 242.2238 -3.3686)">
</image>
<g>
	<circle class="st0" cx="142.2" cy="440.7" r="67.1"/>
</g>
<g>
	<ellipse class="st1" cx="142.2" cy="91.1" rx="50.1" ry="50.1"/>
</g>
<image style="overflow:visible;enable-background:new    ;" width="750" height="750" xlink:href="basket.jpg"  transform="matrix(0.2795 0 0 0.2795 35.5337 334.5471)">
</image>
<image style="overflow:visible;enable-background:new    ;" width="750" height="750" xlink:href="handball.jpg"  transform="matrix(0.1955 0 0 0.1955 68.7814 15.9227)">
</image>
<rect x="74.5" y="152.1" class="st2" width="135.2" height="21.4"/>
<text transform="matrix(1 0 0 1 51.6731 166.0688)" class="st3 st4">Pelota de Handball talla 3</text>
<rect x="29.5" y="168.4" class="st2" width="253.4" height="21.4"/>
<rect x="66.8" y="516" class="st2" width="147.1" height="18.9"/>
<text transform="matrix(1.0082 0 0 1 66.7964 529.7788)" class="st3 st4">Pelota de Basketball</text>
<rect x="51.7" y="530.4" class="st2" width="181.1" height="18.9"/>
<text transform="matrix(1.0082 0 0 1 51.6733 544.1792)" class="st3 st4">(Circunferencia: 74,9 cm)</text>
<image style="overflow:visible;enable-background:new    ;" width="750" height="750" xlink:href="pelota.jpg"  transform="matrix(0.2131 0 0 0.2131 62.3338 179.2212)">
</image>
<text transform="matrix(1 0 0 1 48.3975 182.1331)" class="st3 st4">(Circunferencia: 58-60 cm) </text>
<rect x="78.2" y="324.6" class="st2" width="128.1" height="18.9"/>
<text transform="matrix(0.9605 0 0 1 78.2227 338.3174)" class="st3 st4">Pelota de Voleibol</text>
<rect x="55.5" y="339" class="st2" width="189.4" height="18.9"/>
<text transform="matrix(1 0 0 1 55.5227 352.717)" class="st3 st4">(Circunferencia: 65-67 cm)</text>
<image style="overflow:visible;enable-background:new    ;" width="800" height="160" xlink:href="colores.JPG"  transform="matrix(0.1865 0 0 0.4067 300.5187 67.0956)">
</image>
<text transform="matrix(1 0 0 1 587.686 46.8879)" class="st3 st4">Cámara interior de</text>
<text transform="matrix(1 0 0 1 587.686 61.2882)" class="st3 st4">caucho o material similar</text>
<line class="st5" x1="573.9" y1="163.1" x2="573.9" y2="32.2"/>
<line class="st5" x1="631.9" y1="160.5" x2="631.9" y2="84.7"/>
<text transform="matrix(1 0 0 1 645.8113 96.7552)" class="st3 st4">Cubierta flexible de</text>
<text transform="matrix(1 0 0 1 645.8113 111.1552)" class="st3 st4">cuero o cuero sintético</text>
<line class="st5" x1="711.4" y1="222.1" x2="711.4" y2="137.7"/>
<text transform="matrix(1 0 0 1 722.978 148.8993)" class="st3 st4">Costuras o</text>
<text transform="matrix(1 0 0 1 722.978 163.2992)" class="st3 st4">pegamento</text>
<g>
	<g>
		<path class="st6" d="M351.4,279.6c-2,0.6-3.9,1.2-5.7,1.7"/>
		<path class="st7" d="M334.4,285.5c-10.9,4.7-16.9,9.8-16.9,15.2c0,22.9,108.8,41.4,242.9,41.4s242.9-18.6,242.9-41.4
			c0-7.7-12.2-14.8-33.5-21"/>
		<path class="st6" d="M764.1,278.1c-1.9-0.5-3.8-1-5.8-1.5"/>
	</g>
</g>
<rect x="256.6" y="481.2" class="st2" width="144.1" height="43.8"/>
<text transform="matrix(1 0 0 1 308.1362 494.9327)" class="st3 st4">Peso:</text>
<text transform="matrix(1 0 0 1 281.4362 514.1327)" class="st3 st4">260 - 280 grs </text>
<line class="st5" x1="328.7" y1="474.8" x2="328.7" y2="313.2"/>
<g id="hG5809_00000165214685248916122300000002840051938967040693_">
	
		<image style="overflow:visible;enable-background:new    ;" width="2048" height="2048" id="hG5809_00000157297555835895412710000009190169513936137369_" xlink:href="Untitled_Artwork.jpg"  transform="matrix(0.1097 0 0 0.1097 1038.1323 128.2229)">
	</image>
</g>
<g id="_x30_Rt4JG_00000108301110406076943350000018305661786917032090_">
</g>
<text transform="matrix(1 0 0 1 307.6637 74.8885)" class="st3 st4">Combinación de colores:</text>
<line class="st5" x1="494.4" y1="124.9" x2="494.4" y2="64.5"/>
<text transform="matrix(1 0 0 1 707.0546 544.4688)" class="st3 st4">Presión interna:</text>
<text transform="matrix(1 0 0 1 678.6017 561.4827)" class="st3 st4">0,30 y 0,325 kg/cm²</text>
<line class="st5" x1="792.3" y1="525" x2="792.3" y2="313.9"/>
</svg>
