<?xml version="1.0" encoding="utf-8"?>
<!-- Generator: Adobe Illustrator 27.0.0, SVG Export Plug-In . SVG Version: 6.00 Build 0)  -->
<svg version="1.1" id="Layer_1" xmlns="http://www.w3.org/2000/svg" xmlns:xlink="http://www.w3.org/1999/xlink" x="0px" y="0px"
	 viewBox="0 0 657.7 860.7" style="enable-background:new 0 0 657.7 860.7;" xml:space="preserve">
<style type="text/css">
	.st0{fill:none;stroke:#100407;stroke-linecap:round;stroke-linejoin:round;stroke-dasharray:12.1988,12.1988;}
	.st1{font-family:'ArialMT';}
	.st2{font-size:16px;}
	.st3{fill:none;}
	.st4{fill:none;stroke:#000000;stroke-miterlimit:10;}
	.st5{fill:none;stroke:#100407;stroke-linecap:round;stroke-linejoin:round;}
	.st6{fill:none;stroke:#100407;stroke-linecap:round;stroke-linejoin:round;stroke-dasharray:12.0013,12.0013;}
</style>
<image style="overflow:visible;" width="750" height="750" xlink:href="pelota-explotada.jpg"  transform="matrix(0.8355 0 0 0.8355 17.5722 -3.3686)">
</image>
<g>
	<circle class="st0" cx="542.1" cy="685.9" r="67.1"/>
</g>
<image style="overflow:visible;enable-background:new    ;" width="750" height="750" xlink:href="basket.jpg"  transform="matrix(0.2795 0 0 0.2795 435.3987 588.9547)">
</image>
<image style="overflow:visible;enable-background:new    ;" width="750" height="750" xlink:href="handball.jpg"  transform="matrix(0.1955 0 0 0.1955 44.5534 620.4547)">
</image>
<text transform="matrix(1 0 0 1 32.4698 796.3282)" class="st1 st2">Pelota de Handball talla 3</text>
<rect x="5.3" y="781.4" class="st3" width="253.4" height="21.4"/>
<rect x="466.7" y="776.4" class="st3" width="147.1" height="18.9"/>
<text transform="matrix(1.0082 0 0 1 466.6654 796.3279)" class="st1 st2">Pelota de Basketball</text>
<rect x="451.6" y="790.8" class="st3" width="181.1" height="18.9"/>
<text transform="matrix(1.0082 0 0 1 452.5227 812.7254)" class="st1 st2">(Circunferencia: 74,9 cm)</text>
<image style="overflow:visible;" width="750" height="750" xlink:href="pelota.jpg"  transform="matrix(0.2131 0 0 0.2131 254.2428 613.851)">
</image>
<rect x="29.7" y="798.3" class="st3" width="226.8" height="22.7"/>
<text transform="matrix(1 0 0 1 29.7051 812.0145)" class="st1 st2">(Circunferencia: 58-60 cm) </text>
<rect x="-146.5" y="324.6" class="st3" width="128.1" height="18.9"/>
<text transform="matrix(0.9605 0 0 1 271.3147 796.5039)" class="st1 st2">Pelota de Voleibol</text>
<rect x="-169.2" y="339" class="st3" width="189.4" height="18.9"/>
<text transform="matrix(1 0 0 1 248.4075 812.7253)" class="st1 st2">(Circunferencia: 65-67 cm)</text>
<image style="overflow:visible;enable-background:new    ;" width="800" height="160" xlink:href="colores.JPG"  transform="matrix(0.1865 0 0 0.4067 75.8672 67.0956)">
</image>
<text transform="matrix(1 0 0 1 363.0345 46.8879)" class="st1 st2">Cámara interior de</text>
<text transform="matrix(1 0 0 1 363.0345 61.2882)" class="st1 st2">caucho o material similar</text>
<line class="st4" x1="349.2" y1="163.1" x2="349.2" y2="32.2"/>
<line class="st4" x1="407.2" y1="160.5" x2="407.2" y2="84.7"/>
<text transform="matrix(1 0 0 1 421.1598 96.7552)" class="st1 st2">Cubierta flexible de</text>
<text transform="matrix(1 0 0 1 421.1598 111.1552)" class="st1 st2">cuero o cuero sintético</text>
<line class="st4" x1="486.7" y1="222.1" x2="486.7" y2="137.7"/>
<text transform="matrix(1 0 0 1 498.3265 148.8993)" class="st1 st2">Costuras o</text>
<text transform="matrix(1 0 0 1 498.3265 163.2992)" class="st1 st2">pegamento</text>
<g>
	<g>
		<path class="st5" d="M126.7,279.6c-2,0.6-3.9,1.2-5.7,1.7"/>
		<path class="st6" d="M109.7,285.5c-10.9,4.7-16.9,9.8-16.9,15.2c0,22.9,108.8,41.4,242.9,41.4s242.9-18.6,242.9-41.4
			c0-7.7-12.2-14.8-33.5-21"/>
		<path class="st5" d="M539.4,278.1c-1.9-0.5-3.8-1-5.8-1.5"/>
	</g>
</g>
<rect x="31.9" y="481.2" class="st3" width="144.1" height="43.8"/>
<text transform="matrix(1 0 0 1 83.4847 494.9327)" class="st1 st2">Peso:</text>
<text transform="matrix(1 0 0 1 56.7847 514.1327)" class="st1 st2">260 - 280 grs </text>
<line class="st4" x1="104" y1="474.8" x2="104" y2="313.2"/>
<g id="_x30_Rt4JG_00000108301110406076943350000018305661786917032090_">
</g>
<text transform="matrix(1 0 0 1 83.0122 74.8885)" class="st1 st2">Combinación de colores:</text>
<line class="st4" x1="269.7" y1="124.9" x2="269.7" y2="64.5"/>
<text transform="matrix(1 0 0 1 482.4031 544.4688)" class="st1 st2">Presión interna:</text>
<text transform="matrix(1 0 0 1 453.9502 561.4827)" class="st1 st2">0,30 y 0,325 kg/cm²</text>
<line class="st4" x1="567.6" y1="525" x2="567.6" y2="313.9"/>
</svg>
