<?xml version="1.0" encoding="utf-8"?>
<!-- Generator: Adobe Illustrator 27.0.0, SVG Export Plug-In . SVG Version: 6.00 Build 0)  -->
<svg version="1.1" id="Layer_1" xmlns="http://www.w3.org/2000/svg" xmlns:xlink="http://www.w3.org/1999/xlink" x="0px" y="0px"
	 viewBox="0 0 841.9 351.1" style="enable-background:new 0 0 841.9 351.1;" xml:space="preserve">
<style type="text/css">
	.st0{font-family:'Helvetica';}
	.st1{font-size:18px;}
	.st2{fill:none;stroke:#000000;stroke-miterlimit:10;}
	.st3{fill:none;}
</style>
<image style="overflow:visible;enable-background:new    ;" width="700" height="300" xlink:href="saque-2.jpg"  transform="matrix(1.2278 0 0 1.2278 0 7.1451)">
</image>
<text transform="matrix(1 0 0 1 157.0919 81.8475)" class="st0 st1">Palma abierta</text>
<line class="st2" x1="275.8" y1="120.6" x2="275.8" y2="68.8"/>
<text transform="matrix(1 0 0 1 353.8465 40.5907)" class="st0 st1">Elevación sobre</text>
<text transform="matrix(1 0 0 1 353.8465 58.2906)" class="st0 st1">la cabeza</text>
<line class="st2" x1="344.3" y1="91.6" x2="344.3" y2="27.4"/>
<path id="SVGID_x5F_1_x5F_" class="st3" d="M770.8,114.9c0,42.1-34.1,76.4-76.4,76.4c-42.1,0-76.4-34.1-76.4-76.4
	s34.1-76.4,76.4-76.4C736.7,38.6,770.8,72.8,770.8,114.9z"/>
<text transform="matrix(1 0 0 1 0 -125.2327)" style="font-family:'ArialMT'; font-size:12px;"> </text>
<path id="SVGID_x5F_00000155144122791859042220000016529736324133127103_x5F_" class="st3" d="M833.7,217.6c0-46.9-38.1-85-85-85
	s-85,38.1-85,85s38.1,85,85,85C795.6,302.6,833.7,264.5,833.7,217.6z"/>
<text transform="matrix(1 0 0 1 0 -125.2327)" style="font-family:'ArialMT'; font-size:12px;"> </text>
</svg>
