<?xml version="1.0" encoding="utf-8"?>
<!-- Generator: Adobe Illustrator 27.0.0, SVG Export Plug-In . SVG Version: 6.00 Build 0)  -->
<svg version="1.1" id="Layer_1" xmlns="http://www.w3.org/2000/svg" xmlns:xlink="http://www.w3.org/1999/xlink" x="0px" y="0px"
	 viewBox="0 0 841.9 351.1" style="enable-background:new 0 0 841.9 351.1;" xml:space="preserve">
<style type="text/css">
	.st0{font-family:'ArialMT';}
	.st1{font-size:18px;}
	.st2{font-family:'Helvetica';}
	.st3{fill:none;stroke:#000000;stroke-miterlimit:10;}
	.st4{fill:none;}
</style>
<image style="overflow:visible;enable-background:new    ;" width="700" height="250" xlink:href="saque-1.jpg"  transform="matrix(1.2278 0 0 1.2278 0 15.5873)">
</image>
<text transform="matrix(1 0 0 1 69.5156 68.3792)" class="st0 st1">Mano dominante</text>
<text transform="matrix(1 0 0 1 111.0557 81.3596)" class="st0 st1">del jugador</text>
<text transform="matrix(1 0 0 1 269.4229 298.573)" class="st2 st1">Pie contrario a mano</text>
<text transform="matrix(1 0 0 1 269.4229 311.8328)" class="st2 st1">dominane por delante</text>
<line class="st3" x1="212.8" y1="109.2" x2="212.8" y2="57.4"/>
<line class="st3" x1="258.2" y1="314.4" x2="258.2" y2="262.5"/>
<text transform="matrix(1 0 0 1 690.5498 314.2429)" class="st2 st1">Golpe de palma</text>
<line class="st3" x1="679.8" y1="315.8" x2="679.8" y2="255.3"/>
<text transform="matrix(1 0 0 1 645.0117 28.3127)" class="st2 st1">Golpe de puño</text>
<line class="st3" x1="635" y1="79.8" x2="635" y2="15.6"/>
<path id="SVGID_x5F_1_x5F_" class="st4" d="M770.8,114.9c0,42.1-34.1,76.4-76.4,76.4c-42.1,0-76.4-34.1-76.4-76.4
	s34.1-76.4,76.4-76.4C736.7,38.6,770.8,72.8,770.8,114.9z"/>
<text transform="matrix(1 0 0 1 0 -125.2327)" class="st0" style="font-size:12px;"> </text>
<path id="SVGID_x5F_00000155144122791859042220000016529736324133127103_x5F_" class="st4" d="M833.7,217.6c0-46.9-38.1-85-85-85
	s-85,38.1-85,85s38.1,85,85,85C795.6,302.6,833.7,264.5,833.7,217.6z"/>
<text transform="matrix(1 0 0 1 0 -125.2327)" class="st0" style="font-size:12px;"> </text>
</svg>
